<svg width="116" height="32" viewBox="0 0 116 32" fill="none" xmlns="http://www.w3.org/2000/svg">
<path d="M0 16C0 3.2 3.2 0 16 0C28.8 0 32 3.2 32 16C32 28.8 28.8 32 16 32C3.2 32 0 28.8 0 16Z" fill="url(#paint0_linear_10102_7529)"/>
<path d="M15.281 7.29137L6.86221 22.4108C6.5653 22.9441 6.95083 23.6 7.56116 23.6L15.6626 23.6C15.9563 23.6 16.2264 23.4391 16.3662 23.1809L18.359 19.4996C18.6616 18.9407 19.4635 18.9407 19.7661 19.4996L21.7589 23.1809C21.8987 23.4391 22.1688 23.6 22.4625 23.6H24.422C25.0362 23.6 25.4213 22.9367 25.1168 22.4033L19.7725 13.0434C19.4622 12.4999 18.676 12.5072 18.3758 13.0563L14.8077 19.5837C14.6674 19.8404 14.3982 20 14.1057 20H13.4141C12.8024 20 12.417 19.3412 12.7168 18.808L17.68 9.97929C17.813 9.74279 17.817 9.45503 17.6907 9.2149L16.688 7.3082C16.3922 6.74569 15.5902 6.73609 15.281 7.29137Z" fill="#2CA01C"/>
<path d="M42.2069 21.5877H40V10.4144H43.1751L45.7666 18.9772L48.3721 10.4144H51.519V21.5877H49.3975L49.5684 12.9011L46.9625 21.5877H44.6702L41.9792 12.8227L42.2069 21.5877ZM53.626 10.4144H55.8757V21.5877H53.626V10.4144ZM61.03 10.4144H66.6825V12.4194H61.3718C60.2517 12.4194 59.6917 12.9063 59.6917 13.88C59.6767 14.0503 59.704 14.2215 59.7711 14.3787C59.8382 14.5359 59.9429 14.6741 60.0762 14.7811C60.3561 14.9992 60.7051 15.1094 61.0595 15.0914H63.8914C64.3831 15.0862 64.8741 15.1277 65.3579 15.2154C65.8199 15.3528 66.2357 15.6133 66.5609 15.969C67.0497 16.6213 67.2712 17.4354 67.1803 18.2453C67.182 18.5233 67.1606 18.8009 67.1163 19.0753C67.0591 19.3806 66.9733 19.6799 66.86 19.9691C66.7231 20.3223 66.4958 20.6334 66.2009 20.8711C65.8805 21.1359 65.5026 21.322 65.0974 21.4146C64.6047 21.5411 64.0967 21.5986 63.5882 21.5855H57.8692V19.5834H63.2533C63.6791 19.607 64.1037 19.5188 64.4849 19.3275C64.6386 19.2203 64.7602 19.0733 64.8367 18.9022C64.9133 18.7311 64.9418 18.5424 64.9192 18.3564V18.1237C64.9153 17.8731 64.836 17.6295 64.6914 17.4248C64.5389 17.2746 64.3494 17.1674 64.1421 17.114C63.9014 17.0584 63.6548 17.0325 63.4078 17.0369H60.8642C59.9585 17.0954 59.0614 16.8312 58.3319 16.2913C58.0071 15.9663 57.7588 15.5731 57.6047 15.1403C57.4506 14.7075 57.3947 14.2458 57.441 13.7887C57.4321 13.248 57.5239 12.7103 57.7115 12.2031C57.859 11.7835 58.1148 11.4103 58.4529 11.1214C58.7699 10.8648 59.1394 10.6811 59.5352 10.5831C60.0228 10.4554 60.5261 10.3986 61.03 10.4144ZM69.687 21.5877H67.4088L71.7089 10.4146H73.9871L78.3602 21.5877H75.966L75.0264 18.912H70.5698L69.687 21.5877ZM71.2675 16.9417H74.3289L72.7777 12.6672L71.2675 16.9417Z" fill="white"/>
<path d="M84.1962 21.5877H81.918L86.2181 10.4144H88.4967L92.8693 21.5877H90.4742L89.5355 18.912H85.0789L84.1962 21.5877ZM85.7767 16.9416H88.8385L87.2859 12.6672L85.7767 16.9416ZM96.5979 10.4144H102.25V12.4194H96.9395C95.8194 12.4194 95.2594 12.9063 95.2594 13.88C95.2444 14.0503 95.2717 14.2215 95.3388 14.3787C95.4059 14.5359 95.5106 14.6741 95.6439 14.7811C95.9235 14.999 96.2722 15.1091 96.6262 15.0914H99.4596C99.9512 15.0861 100.442 15.1277 100.926 15.2154C101.388 15.3528 101.804 15.6133 102.129 15.969C102.618 16.6213 102.839 17.4354 102.748 18.2453C102.75 18.5233 102.729 18.8009 102.685 19.0753C102.627 19.3806 102.541 19.6799 102.428 19.9691C102.292 20.3215 102.067 20.6322 101.773 20.8702C101.453 21.1356 101.075 21.3224 100.67 21.4156C100.177 21.5421 99.6691 21.5996 99.1605 21.5864H93.4369V19.5834H98.819C99.2448 19.607 99.6694 19.5188 100.051 19.3275C100.204 19.2203 100.326 19.0733 100.402 18.9022C100.479 18.7311 100.508 18.5424 100.485 18.3564V18.1237C100.481 17.8731 100.402 17.6296 100.257 17.4248C100.105 17.2746 99.9152 17.1674 99.7079 17.114C99.4672 17.0584 99.2205 17.0325 98.9735 17.0369H96.4309C95.5252 17.0954 94.6281 16.8312 93.8986 16.2913C93.5736 15.9664 93.325 15.5733 93.1707 15.1405C93.0165 14.7076 92.9604 14.2459 93.0065 13.7887C92.9976 13.248 93.0894 12.7103 93.277 12.2031C93.4245 11.7843 93.6799 11.4118 94.0175 11.1233C94.3351 10.8657 94.7056 10.6812 95.1026 10.5831C95.5903 10.4554 96.0941 10.3986 96.5979 10.4144ZM109 12.4194H106.508V15.6983H109.113C110.414 15.6983 111.064 15.1545 111.064 14.067C111.097 13.8192 111.063 13.5672 110.967 13.3365C110.871 13.1058 110.715 12.9047 110.516 12.7536C110.05 12.5071 109.526 12.3916 109 12.4194ZM106.508 21.5877H104.358V10.4144H109.028C109.618 10.407 110.208 10.4409 110.794 10.5159C111.238 10.5758 111.662 10.7389 112.032 10.9922C112.516 11.2939 112.89 11.7424 113.1 12.272C113.34 12.8451 113.461 13.4608 113.456 14.0819C113.46 14.6357 113.366 15.1859 113.178 15.7071C113.04 16.1078 112.814 16.4723 112.515 16.7735C112.217 17.0747 111.855 17.3049 111.456 17.447C111.184 17.5248 110.968 17.5818 110.808 17.6179C110.649 17.6541 110.486 17.6725 110.324 17.6728H106.508V21.5877Z" fill="white"/>
<defs>
<linearGradient id="paint0_linear_10102_7529" x1="16" y1="0" x2="16" y2="32" gradientUnits="userSpaceOnUse">
<stop stop-color="#FBFFFF"/>
<stop offset="1" stop-color="#E5EAEE"/>
</linearGradient>
</defs>
</svg>
